<?xml version="1.0"?>
<svg xmlns="http://www.w3.org/2000/svg" xmlns:xlink="http://www.w3.org/1999/xlink" xmlns:svgjs="http://svgjs.com/svgjs" version="1.1" width="512" height="512" x="0" y="0" viewBox="0 0 36 36" style="enable-background:new 0 0 512 512" xml:space="preserve" class=""><g><path xmlns="http://www.w3.org/2000/svg" d="m27.417 3.914c-6.915.129-11.732-3.365-15.064-3.302s-10.296 2.109-10.009 17.44 9.744 17.404 13.41 17.336c17.163-.321 23.911-31.703 11.663-31.474z" fill="#efefef" data-original="#efefef" style="" class=""/><circle xmlns="http://www.w3.org/2000/svg" cx="17" cy="28" fill="#f55951" r="1.5" data-original="#2fdf84" style="" class=""/><circle xmlns="http://www.w3.org/2000/svg" cx="24" cy="28" fill="#f55951" r="1.5" data-original="#2fdf84" style="" class=""/><path xmlns="http://www.w3.org/2000/svg" d="m30.15 14.5-3.17 8.68c-.29.79-1.04 1.32-1.88 1.32h-9.09c-.89 0-1.68-.59-1.92-1.45l-2.45-8.55z" fill="#f3f3f1" data-original="#f3f3f1" style="" class=""/><path xmlns="http://www.w3.org/2000/svg" d="m24 19.5s5.5-2.321 5.5-6.964c0-1.857 0-4.179 0-4.179l-5.5-1.857-5.5 1.857v4.179c0 4.643 5.5 6.964 5.5 6.964z" fill="#f55951" data-original="#2fdf84" style="" class=""/><path xmlns="http://www.w3.org/2000/svg" d="m18.01 24.5h-2c-.89 0-1.68-.59-1.92-1.45l-2.45-8.55h2l2.45 8.55c.24.86 1.03 1.45 1.92 1.45z" fill="#d5dbe1" data-original="#d5dbe1" style=""/><path xmlns="http://www.w3.org/2000/svg" d="m25 18.98c-.59.35-1 .52-1 .52s-5.5-2.32-5.5-6.96c0-2.79 0-4.18 0-4.18l5.5-1.86 1 .34-4.5 1.52v4.18c0 3.38 2.92 5.53 4.5 6.44z" fill="#bf4740" data-original="#00b871" style="" class=""/><path xmlns="http://www.w3.org/2000/svg" d="m17 30.25c-1.24 0-2.25-1.009-2.25-2.25s1.01-2.25 2.25-2.25 2.25 1.009 2.25 2.25-1.01 2.25-2.25 2.25zm0-3c-.413 0-.75.336-.75.75s.337.75.75.75.75-.336.75-.75-.337-.75-.75-.75z" fill="#000000" data-original="#000000" style="" class=""/><path xmlns="http://www.w3.org/2000/svg" d="m24 30.25c-1.24 0-2.25-1.009-2.25-2.25s1.01-2.25 2.25-2.25 2.25 1.009 2.25 2.25-1.01 2.25-2.25 2.25zm0-3c-.413 0-.75.336-.75.75s.337.75.75.75.75-.336.75-.75-.337-.75-.75-.75z" fill="#000000" data-original="#000000" style="" class=""/><path xmlns="http://www.w3.org/2000/svg" d="m11.75 13.75h3.75v1.5h-3.75z" fill="#000000" data-original="#000000" style="" class=""/><path xmlns="http://www.w3.org/2000/svg" d="m25.1 25.25h-9.09c-1.228 0-2.313-.822-2.643-1.999l-3.178-11.095c-.15-.536-.643-.907-1.199-.907h-2.49v-1.5h2.49c1.228 0 2.313.822 2.643 1.999l3.178 11.095c.15.536.643.907 1.199.907h9.09c.522 0 .995-.333 1.177-.828l.909-2.489 1.408.515-.909 2.49c-.398 1.084-1.437 1.812-2.585 1.812z" fill="#000000" data-original="#000000" style="" class=""/><path xmlns="http://www.w3.org/2000/svg" d="m24 20.25c-.1 0-.198-.02-.292-.059-.243-.103-5.958-2.573-5.958-7.655v-4.179c0-.322.205-.607.51-.71l5.5-1.857c.156-.053.324-.053.48 0l5.5 1.857c.305.103.51.389.51.71v4.179c0 5.082-5.715 7.553-5.958 7.655-.094.039-.192.059-.292.059zm-4.75-11.354v3.64c0 3.516 3.673 5.601 4.749 6.136 1.075-.538 4.751-2.633 4.751-6.136v-3.64l-4.75-1.604z" fill="#000000" data-original="#000000" style="" class=""/><path xmlns="http://www.w3.org/2000/svg" d="m23.5 15.25c-.014 0-.027 0-.041-.001-.214-.012-.411-.114-.545-.28l-2-2.5 1.172-.938 1.477 1.846 2.907-2.907 1.061 1.061-3.5 3.5c-.141.14-.333.219-.531.219z" fill="#000000" data-original="#000000" style="" class=""/><g xmlns="http://www.w3.org/2000/svg" fill="#a4afc1"><path d="m5.375 1.417h1v2h-1z" fill="#a4afc1" data-original="#a4afc1" style=""/><path d="m5.375 7.167h1v2h-1z" fill="#a4afc1" data-original="#a4afc1" style=""/><path d="m1.875 4.667h2v1h-2z" fill="#a4afc1" data-original="#a4afc1" style=""/><path d="m7.625 4.667h2v1h-2z" fill="#a4afc1" data-original="#a4afc1" style=""/></g></g></svg>
