<?xml version="1.0"?>
<svg xmlns="http://www.w3.org/2000/svg" xmlns:xlink="http://www.w3.org/1999/xlink" xmlns:svgjs="http://svgjs.com/svgjs" version="1.1" width="512" height="512" x="0" y="0" viewBox="0 0 36 36" style="enable-background:new 0 0 512 512" xml:space="preserve" class=""><g><path xmlns="http://www.w3.org/2000/svg" d="m27.417 3.914c-6.915.129-11.732-3.365-15.064-3.302s-10.296 2.109-10.009 17.44 9.744 17.404 13.41 17.336c17.163-.321 23.911-31.703 11.663-31.474z" fill="#efefef" data-original="#efefef" style="" class=""/><path xmlns="http://www.w3.org/2000/svg" d="m9.75 8.75h8.5v9h-8.5z" fill="#f55951" data-original="#2fdf84" style="" class=""/><path xmlns="http://www.w3.org/2000/svg" d="m12.75 8.75h2.5v3.5h-2.5z" fill="#f55951" data-original="#2fdf84" style="" class=""/><circle xmlns="http://www.w3.org/2000/svg" cx="27" cy="27" fill="#f3f3f1" r="2.25" data-original="#f3f3f1" style="" class=""/><circle xmlns="http://www.w3.org/2000/svg" cx="10" cy="28" fill="#f3f3f1" r="1.25" data-original="#f3f3f1" style="" class=""/><circle xmlns="http://www.w3.org/2000/svg" cx="27" cy="12" fill="#f3f3f1" r="1.25" data-original="#f3f3f1" style="" class=""/><g xmlns="http://www.w3.org/2000/svg" fill="#2fdf84"><path d="m8.75 17.75h8.5v8.5h-8.5z" fill="#f55951" data-original="#2fdf84" style="" class=""/><path d="m11.75 17.75h2.5v3.5h-2.5z" fill="#f55951" data-original="#2fdf84" style="" class=""/><path d="m26.75 24.775v-.275-5.75c0-.552-.448-1-1-1h-1.598c-.396 0-.755.234-.915.596l-3.487 7.904h5.138c.283-.796.995-1.378 1.862-1.475z" fill="#f55951" data-original="#2fdf84" style="" class=""/></g><path xmlns="http://www.w3.org/2000/svg" d="m9.75 8.75h2.25v9h-2.25z" fill="#bf4740" data-original="#00b871" style="" class=""/><path xmlns="http://www.w3.org/2000/svg" d="m27 27c0-.831.455-1.548 1.125-1.938-.332-.193-.713-.312-1.125-.312-1.243 0-2.25 1.007-2.25 2.25s1.007 2.25 2.25 2.25c.412 0 .793-.119 1.125-.312-.67-.39-1.125-1.107-1.125-1.938z" fill="#d5dbe1" data-original="#d5dbe1" style="" class=""/><path xmlns="http://www.w3.org/2000/svg" d="m8.75 17.75h2.25v8.5h-2.25z" fill="#bf4740" data-original="#00b871" style="" class=""/><path xmlns="http://www.w3.org/2000/svg" d="m26.067 17.814c-.101-.034-.205-.064-.317-.064h-1.598c-.396 0-.755.234-.915.596l-3.487 7.904h2.25l3.487-7.904c.113-.255.327-.441.58-.532z" fill="#bf4740" data-original="#00b871" style="" class=""/><g xmlns="http://www.w3.org/2000/svg" fill="#a4afc1"><path d="m8.576 4.306h2v1h-2z" transform="matrix(.707 -.707 .707 .707 -.594 8.179)" fill="#a4afc1" data-original="#a4afc1" style="" class=""/><path d="m4.51 8.371h2v1h-2z" transform="matrix(.707 -.707 .707 .707 -4.659 6.494)" fill="#a4afc1" data-original="#a4afc1" style="" class=""/><path d="m5.01 3.629h1v2h-1z" transform="matrix(.707 -.707 .707 .707 -1.659 5.253)" fill="#a4afc1" data-original="#a4afc1" style="" class=""/><path d="m31.038 22.75c-.827 0-1.5-.673-1.5-1.5s.673-1.5 1.5-1.5 1.5.673 1.5 1.5-.673 1.5-1.5 1.5zm0-2c-.276 0-.5.225-.5.5s.224.5.5.5.5-.225.5-.5-.224-.5-.5-.5z" fill="#a4afc1" data-original="#a4afc1" style="" class=""/></g><path xmlns="http://www.w3.org/2000/svg" d="m18.25 18.5h-8.5c-.414 0-.75-.336-.75-.75v-9c0-.414.336-.75.75-.75h8.5c.414 0 .75.336.75.75v9c0 .414-.336.75-.75.75zm-7.75-1.5h7v-7.5h-7z" fill="#000000" data-original="#000000" style="" class=""/><path xmlns="http://www.w3.org/2000/svg" d="m15.25 13h-2.5c-.414 0-.75-.336-.75-.75v-3.5c0-.414.336-.75.75-.75h2.5c.414 0 .75.336.75.75v3.5c0 .414-.336.75-.75.75zm-1.75-1.5h1v-2h-1z" fill="#000000" data-original="#000000" style="" class=""/><path xmlns="http://www.w3.org/2000/svg" d="m6.75 25.5h17.75v1.5h-17.75z" fill="#000000" data-original="#000000" style="" class=""/><path xmlns="http://www.w3.org/2000/svg" d="m27 30c-1.654 0-3-1.346-3-3s1.346-3 3-3 3 1.346 3 3-1.346 3-3 3zm0-4.5c-.827 0-1.5.673-1.5 1.5s.673 1.5 1.5 1.5 1.5-.673 1.5-1.5-.673-1.5-1.5-1.5z" fill="#000000" data-original="#000000" style="" class=""/><path xmlns="http://www.w3.org/2000/svg" d="m10 30c-1.103 0-2-.897-2-2s.897-2 2-2 2 .897 2 2-.897 2-2 2zm0-2.5c-.276 0-.5.225-.5.5s.224.5.5.5.5-.225.5-.5-.224-.5-.5-.5z" fill="#000000" data-original="#000000" style="" class=""/><path xmlns="http://www.w3.org/2000/svg" d="m20.436 26.553-1.372-.605 3.487-7.903c.28-.636.908-1.045 1.601-1.045h1.598c.965 0 1.75.785 1.75 1.75v5.75h-1.5v-5.75c0-.138-.112-.25-.25-.25h-1.598c-.099 0-.189.059-.229.15z" fill="#000000" data-original="#000000" style="" class=""/><path xmlns="http://www.w3.org/2000/svg" d="m23.327 14.875h4.596v1.499h-4.596z" transform="matrix(.38 -.925 .925 .38 1.428 33.381)" fill="#000000" data-original="#000000" style="" class=""/><path xmlns="http://www.w3.org/2000/svg" d="m27 14c-1.103 0-2-.897-2-2s.897-2 2-2 2 .897 2 2-.897 2-2 2zm0-2.5c-.276 0-.5.225-.5.5s.224.5.5.5.5-.225.5-.5-.224-.5-.5-.5z" fill="#000000" data-original="#000000" style="" class=""/><path xmlns="http://www.w3.org/2000/svg" d="m17.25 27h-8.5c-.414 0-.75-.336-.75-.75v-8.5c0-.414.336-.75.75-.75h8.5c.414 0 .75.336.75.75v8.5c0 .414-.336.75-.75.75zm-7.75-1.5h7v-7h-7z" fill="#000000" data-original="#000000" style="" class=""/><path xmlns="http://www.w3.org/2000/svg" d="m14.25 22h-2.5c-.414 0-.75-.336-.75-.75v-3.5c0-.414.336-.75.75-.75h2.5c.414 0 .75.336.75.75v3.5c0 .414-.336.75-.75.75zm-1.75-1.5h1v-2h-1z" fill="#000000" data-original="#000000" style="" class=""/></g></svg>
