<?xml version="1.0"?>
<svg xmlns="http://www.w3.org/2000/svg" xmlns:xlink="http://www.w3.org/1999/xlink" xmlns:svgjs="http://svgjs.com/svgjs" version="1.1" width="512" height="512" x="0" y="0" viewBox="0 0 36 36" style="enable-background:new 0 0 512 512" xml:space="preserve" class=""><g><path xmlns="http://www.w3.org/2000/svg" d="m34.904 20.355c-3.782-5.791-3.38-11.727-5.203-14.518s-7.256-7.603-20.093.782-9.572 17.5-7.566 20.569c9.388 14.372 39.561 3.423 32.862-6.833z" fill="#efefef" data-original="#efefef" style="" class=""/><path xmlns="http://www.w3.org/2000/svg" d="m10.75 13.75-2 10.5h3.75 4 3.5l2.25-10.5z" fill="#f55951" data-original="#2fdf84" style="" class=""/><path xmlns="http://www.w3.org/2000/svg" d="m25.25 16.75h-3.643l-1.607 7.5h3.5 4 1l.75-3.5c0-2.21-1.79-4-4-4z" fill="#f55951" data-original="#2fdf84" style="" class=""/><circle xmlns="http://www.w3.org/2000/svg" cx="25.5" cy="24.5" fill="#f3f3f1" r="1.75" data-original="#f3f3f1" style=""/><circle xmlns="http://www.w3.org/2000/svg" cx="14.5" cy="24.5" fill="#f3f3f1" r="1.75" data-original="#f3f3f1" style=""/><path xmlns="http://www.w3.org/2000/svg" d="m10.75 13.75-2 10.5h2.25l2-10.5z" fill="#bf4740" data-original="#00b871" style="" class=""/><path xmlns="http://www.w3.org/2000/svg" d="m21.607 16.75-1.607 7.5h2.25l1.607-7.5z" fill="#bf4740" data-original="#00b871" style="" class=""/><path xmlns="http://www.w3.org/2000/svg" d="m26 24.5c0-.536.246-1.009.625-1.33-.305-.258-.694-.42-1.125-.42-.967 0-1.75.784-1.75 1.75s.783 1.75 1.75 1.75c.431 0 .82-.162 1.125-.42-.379-.321-.625-.794-.625-1.33z" fill="#d5dbe1" data-original="#d5dbe1" style="" class=""/><path xmlns="http://www.w3.org/2000/svg" d="m15 24.5c0-.536.246-1.009.625-1.33-.305-.258-.694-.42-1.125-.42-.966 0-1.75.784-1.75 1.75s.784 1.75 1.75 1.75c.431 0 .82-.162 1.125-.42-.379-.321-.625-.794-.625-1.33z" fill="#d5dbe1" data-original="#d5dbe1" style="" class=""/><g xmlns="http://www.w3.org/2000/svg" fill="#a4afc1"><path d="m5.75 12.75c-.827 0-1.5-.673-1.5-1.5s.673-1.5 1.5-1.5 1.5.673 1.5 1.5-.673 1.5-1.5 1.5zm0-2c-.276 0-.5.225-.5.5s.224.5.5.5.5-.225.5-.5-.224-.5-.5-.5z" fill="#a4afc1" data-original="#a4afc1" style=""/><path d="m26.805 6.717h1v2h-1z" transform="matrix(.707 -.707 .707 .707 2.543 21.572)" fill="#a4afc1" data-original="#a4afc1" style=""/><path d="m30.871 10.783h1v2h-1z" transform="matrix(.707 -.707 .707 .707 .859 25.639)" fill="#a4afc1" data-original="#a4afc1" style=""/><path d="m26.129 11.283h2v1h-2z" transform="matrix(.707 -.707 .707 .707 -.386 22.634)" fill="#a4afc1" data-original="#a4afc1" style=""/><path d="m30.195 7.217h2v1h-2z" transform="matrix(.707 -.707 .707 .707 3.68 24.318)" fill="#a4afc1" data-original="#a4afc1" style=""/></g><path xmlns="http://www.w3.org/2000/svg" d="m8.75 23.5h3.75v1.5h-3.75z" fill="#000000" data-original="#000000" style="" class=""/><path xmlns="http://www.w3.org/2000/svg" d="m20 25h-3.5v-1.5h2.894l1.929-9h-10.573v-1.5h11.5c.227 0 .441.103.583.278.143.177.198.407.15.629l-2.25 10.5c-.074.346-.379.593-.733.593z" fill="#000000" data-original="#000000" style="" class=""/><path xmlns="http://www.w3.org/2000/svg" d="m28.5 25h-1v-1.5h.394l.605-2.825c-.04-1.758-1.482-3.175-3.249-3.175h-3.037l-1.286 6h2.573v1.5h-3.5c-.227 0-.441-.103-.583-.278-.143-.177-.198-.407-.15-.629l1.607-7.5c.074-.346.379-.593.733-.593h3.643c2.619 0 4.75 2.131 4.75 4.75 0 .053-.005.105-.017.157l-.75 3.5c-.074.346-.379.593-.733.593z" fill="#000000" data-original="#000000" style="" class=""/><path xmlns="http://www.w3.org/2000/svg" d="m25.5 27c-1.378 0-2.5-1.121-2.5-2.5s1.122-2.5 2.5-2.5 2.5 1.121 2.5 2.5-1.122 2.5-2.5 2.5zm0-3.5c-.551 0-1 .448-1 1s.449 1 1 1 1-.448 1-1-.449-1-1-1z" fill="#000000" data-original="#000000" style="" class=""/><path xmlns="http://www.w3.org/2000/svg" d="m14.5 27c-1.378 0-2.5-1.121-2.5-2.5s1.122-2.5 2.5-2.5 2.5 1.121 2.5 2.5-1.122 2.5-2.5 2.5zm0-3.5c-.551 0-1 .448-1 1s.449 1 1 1 1-.448 1-1-.449-1-1-1z" fill="#000000" data-original="#000000" style="" class=""/><path xmlns="http://www.w3.org/2000/svg" d="m8.75 15h3.5v1.5h-3.5z" fill="#000000" data-original="#000000" style="" class=""/><path xmlns="http://www.w3.org/2000/svg" d="m7.75 18h4.5v1.5h-4.5z" fill="#000000" data-original="#000000" style="" class=""/><path xmlns="http://www.w3.org/2000/svg" d="m6.75 21h5.5v1.5h-5.5z" fill="#000000" data-original="#000000" style="" class=""/></g></svg>
