<?xml version="1.0"?>
<svg xmlns="http://www.w3.org/2000/svg" xmlns:xlink="http://www.w3.org/1999/xlink" xmlns:svgjs="http://svgjs.com/svgjs" version="1.1" width="512" height="512" x="0" y="0" viewBox="0 0 36 36" style="enable-background:new 0 0 512 512" xml:space="preserve" class=""><g><g xmlns="http://www.w3.org/2000/svg" id="bg"><g><path d="m27.417 3.914c-6.915.129-11.732-3.365-15.064-3.302s-10.296 2.109-10.009 17.44 9.744 17.404 13.41 17.336c17.163-.321 23.911-31.703 11.663-31.474z" fill="#efefef" data-original="#efefef" style="" class=""/></g></g><g xmlns="http://www.w3.org/2000/svg" id="color"><g><path d="m10.75 29.25c-.55 0-1-.45-1-1v-10h-2.5c-.28 0-.5-.22-.5-.5 0-.14.06-.27.15-.36l11.1-10.64 11.1 10.64c.09.09.15.22.15.36 0 .28-.22.5-.5.5h-2.5v10c0 .55-.45 1-1 1z" fill="#f3f3f1" data-original="#f3f3f1" style=""/></g><g><path d="m21.25 29.25v-6.5c0-.552-.448-1-1-1h-4.5c-.552 0-1 .448-1 1v6.5z" fill="#f55951" data-original="#2fdf84" style="" class=""/></g><g><path d="m18 21.75h-2.25c-.552 0-1 .448-1 1v6.5h2.25v-6.5c0-.552.448-1 1-1z" fill="#bf4740" data-original="#00b871" style="" class=""/></g><g><g><path d="m13 28.25v-10h-2.5c-.28 0-.5-.22-.5-.5 0-.14.06-.27.15-.36l9.475-9.082-1.625-1.558-11.1 10.64c-.09.09-.15.22-.15.36 0 .28.22.5.5.5h2.5v10c0 .55.45 1 1 1h3.25c-.55 0-1-.45-1-1z" fill="#d5dbe1" data-original="#d5dbe1" style=""/></g></g><g><g><path d="m4.305 2.967h1v2h-1z" fill="#a4afc1" transform="matrix(.707 -.707 .707 .707 -1.398 4.56)" data-original="#a4afc1" style=""/></g><g><path d="m8.371 7.033h1v2h-1z" fill="#a4afc1" transform="matrix(.707 -.707 .707 .707 -3.082 8.626)" data-original="#a4afc1" style=""/></g><g><path d="m3.628 7.533h2v1h-2z" fill="#a4afc1" transform="matrix(.707 -.707 .707 .707 -4.325 5.626)" data-original="#a4afc1" style=""/></g><g><path d="m7.694 3.467h2v1h-2z" fill="#a4afc1" transform="matrix(.707 -.707 .707 .707 -.259 7.31)" data-original="#a4afc1" style=""/></g></g><g><path d="m30.728 32.105c-.827 0-1.5-.673-1.5-1.5s.673-1.5 1.5-1.5 1.5.673 1.5 1.5-.673 1.5-1.5 1.5zm0-2c-.276 0-.5.224-.5.5s.224.5.5.5.5-.224.5-.5-.225-.5-.5-.5z" fill="#a4afc1" data-original="#a4afc1" style=""/></g></g><g xmlns="http://www.w3.org/2000/svg" id="regular"><g><path d="m25.25 30h-4c-.414 0-.75-.336-.75-.75v-3.75h1.5v3h3.25c.136 0 .25-.114.25-.25v-10c0-.414.336-.75.75-.75h1.881l-10.131-9.711-10.131 9.711h1.881c.414 0 .75.336.75.75v10c0 .136.114.25.25.25h3.25v-5.75c0-.965.785-1.75 1.75-1.75h4.5c.965 0 1.75.785 1.75 1.75v1.25h-1.5v-1.25c0-.138-.112-.25-.25-.25h-4.5c-.138 0-.25.112-.25.25v6.5c0 .414-.336.75-.75.75h-4c-.965 0-1.75-.785-1.75-1.75v-9.25h-1.75c-.689 0-1.25-.561-1.25-1.25 0-.331.135-.655.37-.89l11.111-10.652c.29-.278.748-.278 1.038 0l11.1 10.64c.246.247.381.571.381.902 0 .689-.561 1.25-1.25 1.25h-1.75v9.25c0 .965-.785 1.75-1.75 1.75z" fill="#000000" data-original="#000000" style=""/></g><g><path d="m14.75 28.5h6.5v1.5h-6.5z" fill="#000000" data-original="#000000" style=""/></g></g></g></svg>
