<?xml version="1.0"?>
<svg xmlns="http://www.w3.org/2000/svg" xmlns:xlink="http://www.w3.org/1999/xlink" xmlns:svgjs="http://svgjs.com/svgjs" version="1.1" width="512" height="512" x="0" y="0" viewBox="0 0 36 36" style="enable-background:new 0 0 512 512" xml:space="preserve" class=""><g><g xmlns="http://www.w3.org/2000/svg" id="bg"><g><path d="m8.114 5.564c-1.805 6.677-6.504 10.327-7.374 13.545s-.847 10.475 13.955 14.477 19.432-4.501 20.388-8.041c4.481-16.572-23.772-31.807-26.969-19.981z" fill="#efefef" data-original="#efefef" style=""/></g></g><g xmlns="http://www.w3.org/2000/svg" id="color"><g><path d="m29.25 13.607c0 6.345-10.536 14.33-10.536 14.33-.176.195-.43.312-.714.312s-.538-.117-.714-.312c0 0-10.536-7.985-10.536-14.33 0-3.231 2.632-5.857 5.87-5.857 2.407 0 4.48 1.445 5.38 3.514.9-2.07 2.974-3.514 5.38-3.514 3.238 0 5.87 2.626 5.87 5.857z" fill="#f55951" data-original="#2fdf84" style="" class=""/></g><g><g><path d="m9 13.607c0-2.838 2.03-5.207 4.718-5.743-.357-.067-.722-.114-1.098-.114-3.238 0-5.87 2.626-5.87 5.857 0 6.345 10.536 14.331 10.536 14.331.176.195.43.312.714.312s.538-.117.714-.312c0 0 .151-.115.411-.322-1.937-1.547-10.125-8.414-10.125-14.009z" fill="#bf4740" data-original="#00b871" style="" class=""/></g></g><g><path d="m31 9.5c-.827 0-1.5-.673-1.5-1.5s.673-1.5 1.5-1.5 1.5.673 1.5 1.5-.673 1.5-1.5 1.5zm0-2c-.276 0-.5.224-.5.5s.224.5.5.5.5-.224.5-.5-.224-.5-.5-.5z" fill="#a4afc1" data-original="#a4afc1" style="" class=""/></g><g><g><path d="m4.305 26.217h1v2h-1z" fill="#a4afc1" transform="matrix(.707 -.707 .707 .707 -17.838 11.37)" data-original="#a4afc1" style="" class=""/></g><g><path d="m8.371 30.283h1v2h-1z" fill="#a4afc1" transform="matrix(.707 -.707 .707 .707 -19.522 15.436)" data-original="#a4afc1" style="" class=""/></g><g><path d="m3.628 30.783h2v1h-2z" fill="#a4afc1" transform="matrix(.707 -.707 .707 .707 -20.765 12.436)" data-original="#a4afc1" style="" class=""/></g><g><path d="m7.694 26.717h2v1h-2z" fill="#a4afc1" transform="matrix(.707 -.707 .707 .707 -16.699 14.12)" data-original="#a4afc1" style="" class=""/></g></g></g><g xmlns="http://www.w3.org/2000/svg" id="regular"><g><path d="m18 29c-.46 0-.899-.182-1.216-.502-.323-.248-2.099-1.634-4.138-3.636l1.051-1.07c2.139 2.1 4.023 3.534 4.042 3.548.038.029.073.061.104.096.075.085.237.085.312 0 .032-.035.067-.067.104-.096.104-.078 10.241-7.834 10.241-13.733 0-2.816-2.297-5.107-5.12-5.107-2.042 0-3.883 1.203-4.692 3.063-.238.547-1.138.547-1.376 0-.809-1.86-2.651-3.063-4.692-3.063-2.823 0-5.12 2.291-5.12 5.107 0 2.286 1.601 5.247 4.629 8.563l-1.107 1.012c-3.333-3.649-5.022-6.87-5.022-9.575 0-3.643 2.97-6.607 6.62-6.607 2.165 0 4.156 1.047 5.38 2.753 1.224-1.706 3.216-2.753 5.38-2.753 3.65 0 6.62 2.964 6.62 6.607 0 6.481-9.895 14.209-10.784 14.891-.318.32-.756.502-1.216.502z" fill="#000000" data-original="#000000" style="" class=""/></g></g></g></svg>
