<?xml version="1.0"?>
<svg xmlns="http://www.w3.org/2000/svg" xmlns:xlink="http://www.w3.org/1999/xlink" xmlns:svgjs="http://svgjs.com/svgjs" version="1.1" width="512" height="512" x="0" y="0" viewBox="0 0 36 36" style="enable-background:new 0 0 512 512" xml:space="preserve" class=""><g><g xmlns="http://www.w3.org/2000/svg" id="Layer_2"><g><path d="m3.442 23.681c6.061 3.333 8.497 8.761 11.417 10.367 2.921 1.606 9.978 3.299 17.366-10.137s.221-19.945-2.992-21.711c-15.042-8.272-36.525 15.578-25.791 21.481z" fill="#efefef" data-original="#efefef" style="" class=""/></g></g><g xmlns="http://www.w3.org/2000/svg" id="color"><g><path d="m27.25 16.25h-11.5c-.552 0-1-.448-1-1v-6.5c0-.552.448-1 1-1h11.5c.552 0 1 .448 1 1v6.5c0 .552-.448 1-1 1z" fill="#f55951" data-original="#2fdf84" style="" class=""/></g><g><path d="m17 15.25v-6.5c0-.552.448-1 1-1h-2.25c-.552 0-1 .448-1 1v6.5c0 .552.448 1 1 1h2.25c-.552 0-1-.448-1-1z" fill="#bf4740" data-original="#00b871" style="" class=""/></g><g><circle cx="21.5" cy="12" fill="#f3f3f1" r="1.25" data-original="#f3f3f1" style="" class=""/></g><g><path d="m11.5 19.867-.23.84-1.47 5.43-.3 1.11h-2.75v-8.5c3.3 0 4.75 1.12 4.75 1.12z" fill="#f55951" data-original="#2fdf84" style="" class=""/></g><g><path d="m6.75 18.747v8.5h2.25v-8.3c-.626-.118-1.367-.2-2.25-.2z" fill="#bf4740" data-original="#00b871" style="" class=""/></g><g><path d="m29.25 25.247s-7.25 4-10.25 4c-2.38 0-7.28-2.21-9.2-3.11l1.47-5.43 9.63 1.97c.93.19 1.6 1.01 1.6 1.96v.44c1.44-.45 2.95-1.08 4.25-1.08 2 0 2.5 1.25 2.5 1.25z" fill="#f3f3f1" data-original="#f3f3f1" style="" class=""/></g><g><g><path d="m12.05 26.637 1.47-5.43 7.745 1.584c-.117-.048-.238-.088-.365-.114l-9.63-1.97-1.47 5.43c1.789.839 6.164 2.813 8.678 3.078-2.357-.712-5.102-1.957-6.428-2.578z" fill="#d5dbe1" data-original="#d5dbe1" style="" class=""/></g></g><g><path d="m9.8 26.886-.534-.217.514-.527v-.765l.534.217-.514.528z" fill="#000000" data-original="#000000" style="" class=""/></g><g><path d="m21.75 25.087v-.01h1.5z" fill="#000000" data-original="#000000" style="" class=""/></g><g><g><path d="m8.195 14.033h1v2h-1z" fill="#a4afc1" transform="matrix(.707 -.707 .707 .707 -8.084 10.554)" data-original="#a4afc1" style=""/></g><g><path d="m4.129 9.967h1v2h-1z" fill="#a4afc1" transform="matrix(.707 -.707 .707 .707 -6.4 6.487)" data-original="#a4afc1" style=""/></g><g><path d="m7.871 10.468h2v1h-2z" fill="#a4afc1" transform="matrix(.707 -.707 .707 .707 -5.157 9.485)" data-original="#a4afc1" style=""/></g><g><path d="m3.805 14.533h2v1h-2z" fill="#a4afc1" transform="matrix(.707 -.707 .707 .707 -9.222 7.801)" data-original="#a4afc1" style=""/></g></g><g><path d="m31 20.75c-.827 0-1.5-.673-1.5-1.5s.673-1.5 1.5-1.5 1.5.673 1.5 1.5-.673 1.5-1.5 1.5zm0-2c-.276 0-.5.225-.5.5s.224.5.5.5.5-.225.5-.5-.224-.5-.5-.5z" fill="#a4afc1" data-original="#a4afc1" style=""/></g></g><g xmlns="http://www.w3.org/2000/svg" id="line"><g><path d="m21.5 14c-1.103 0-2-.897-2-2s.897-2 2-2 2 .897 2 2-.897 2-2 2zm0-2.5c-.276 0-.5.225-.5.5s.224.5.5.5.5-.225.5-.5-.224-.5-.5-.5z" fill="#000000" data-original="#000000" style="" class=""/></g><g><path d="m16.5 11.25h1.25v1.5h-1.25z" fill="#000000" data-original="#000000" style="" class=""/></g><g><path d="m25.25 11.25h1.25v1.5h-1.25z" fill="#000000" data-original="#000000" style="" class=""/></g><g><path d="m27.25 17h-11.5c-.965 0-1.75-.785-1.75-1.75v-6.5c0-.965.785-1.75 1.75-1.75h11.5c.965 0 1.75.785 1.75 1.75v6.5c0 .965-.785 1.75-1.75 1.75zm-11.5-8.5c-.138 0-.25.112-.25.25v6.5c0 .138.112.25.25.25h11.5c.138 0 .25-.112.25-.25v-6.5c0-.138-.112-.25-.25-.25z" fill="#000000" data-original="#000000" style="" class=""/></g><g><path d="m9.5 28h-2.75c-.414 0-.75-.336-.75-.75v-8.5c0-.414.336-.75.75-.75 3.505 0 5.138 1.217 5.205 1.269.242.185.349.498.269.792l-2 7.386c-.089.326-.385.553-.724.553zm-2-1.5h1.426l1.698-6.271c-.523-.247-1.546-.615-3.125-.707v6.978z" fill="#000000" data-original="#000000" style="" class=""/></g><g><path d="m19 30c-2.409 0-7.011-2-9.54-3.191l.64-1.357c4.11 1.938 7.354 3.049 8.9 3.049 2.028 0 6.632-2.19 9.044-3.454-.278-.159-.692-.296-1.294-.296-.878 0-1.963.361-3.013.712-1.163.388-2.366.788-3.487.788-2.108 0-4.889-1.003-5.006-1.045l.512-1.41c.026.01 2.652.955 4.494.955.878 0 1.963-.361 3.013-.712 1.163-.388 2.366-.788 3.487-.788 2.479 0 3.168 1.651 3.196 1.722.141.352-.002.752-.334.935-.302.166-7.455 4.092-10.612 4.092z" fill="#000000" data-original="#000000" style="" class=""/></g><g><path d="m23.25 25.09h-1.5v-.45c0-.592-.42-1.107-1-1.225l-9.63-1.972.301-1.469 9.63 1.971c1.274.259 2.2 1.393 2.2 2.694v.451z" fill="#000000" data-original="#000000" style="" class=""/></g></g></g></svg>
