<?xml version="1.0"?>
<svg xmlns="http://www.w3.org/2000/svg" xmlns:xlink="http://www.w3.org/1999/xlink" xmlns:svgjs="http://svgjs.com/svgjs" version="1.1" width="512" height="512" x="0" y="0" viewBox="0 0 36 36" style="enable-background:new 0 0 512 512" xml:space="preserve" class=""><g><path xmlns="http://www.w3.org/2000/svg" d="m8.377 4.167c6.917 0 11.667-3.583 15-3.583s10.333 1.916 10.333 17.249-9.417 17.583-13.083 17.583c-17.167.001-24.5-31.249-12.25-31.249z" fill="#efefef" data-original="#efefef" style="" class=""/><path xmlns="http://www.w3.org/2000/svg" d="m31.5 5c-.827 0-1.5-.673-1.5-1.5s.673-1.5 1.5-1.5 1.5.673 1.5 1.5-.673 1.5-1.5 1.5zm0-2c-.275 0-.5.224-.5.5s.225.5.5.5.5-.224.5-.5-.225-.5-.5-.5z" fill="#a4afc1" data-original="#a4afc1" style=""/><path xmlns="http://www.w3.org/2000/svg" d="m6.75 10.75v16.5c0 1.1.9 2 2 2h18.5c1.1 0 2-.9 2-2v-16.5z" fill="#f3f3f1" data-original="#f3f3f1" style="" class=""/><g xmlns="http://www.w3.org/2000/svg" fill="#2fdf84"><path d="m6.75 10.75v4.75c0 1.519 1.231 2.75 2.75 2.75s2.75-1.231 2.75-2.75v-.25c0 1.657 1.343 3 3 3s3-1.343 3-3c0 1.657 1.231 3 2.75 3s2.75-1.343 2.75-3v.25c0 1.519 1.231 2.75 2.75 2.75s2.75-1.231 2.75-2.75v-4.75z" fill="#f55951" data-original="#2fdf84" style="" class=""/><path d="m24.25 29.25v-5.5c0-1.105-.895-2-2-2h-8.5c-1.105 0-2 .895-2 2v5.5z" fill="#f55951" data-original="#2fdf84" style="" class=""/><path d="m6.75 10.75 1.72-3.45c.17-.34.52-.55.9-.55h17.26c.38 0 .73.21.9.55l1.72 3.45z" fill="#f55951" data-original="#2fdf84" style="" class=""/></g><path xmlns="http://www.w3.org/2000/svg" d="m9 15.5v-4.75h-2.25v4.75c0 1.519 1.231 2.75 2.75 2.75.402 0 .781-.091 1.125-.246-.956-.43-1.625-1.387-1.625-2.504z" fill="#bf4740" data-original="#00b871" style="" class=""/><path xmlns="http://www.w3.org/2000/svg" d="m16 21.75h-2.25c-1.105 0-2 .895-2 2v5.5h2.25v-5.5c0-1.105.895-2 2-2z" fill="#bf4740" data-original="#00b871" style="" class=""/><path xmlns="http://www.w3.org/2000/svg" d="m11.62 6.75h-2.25c-.38 0-.73.21-.9.55l-1.72 3.45h2.25l1.72-3.45c.17-.34.52-.55.9-.55z" fill="#bf4740" data-original="#00b871" style="" class=""/><path xmlns="http://www.w3.org/2000/svg" d="m9 27.25v-9l-2.25-1v10c0 1.1.9 2 2 2h2.25c-1.1 0-2-.9-2-2z" fill="#d5dbe1" data-original="#d5dbe1" style=""/><path xmlns="http://www.w3.org/2000/svg" d="m26.5 19c-1.136 0-2.146-.543-2.786-1.384-.643.844-1.62 1.384-2.714 1.384-1.129 0-2.136-.576-2.775-1.468-.687.892-1.765 1.468-2.975 1.468-1.188 0-2.249-.556-2.937-1.42-.638.861-1.662 1.42-2.813 1.42-1.93 0-3.5-1.57-3.5-3.5v-4.75h1.5v4.75c0 1.103.897 2 2 2s2-.897 2-2v-1.75c0-.414.336-.75.75-.75s.75.336.75.75v1.5c0 1.241 1.01 2.25 2.25 2.25s2.25-1.009 2.25-2.25v-1.5c0-.414.336-.75.75-.75s.75.336.75.75v1.5c0 1.241.897 2.25 2 2.25s2-1.009 2-2.25v-1.5c0-.414.336-.75.75-.75s.75.336.75.75v1.75c0 1.103.897 2 2 2s2-.897 2-2v-4.75h1.5v4.75c0 1.93-1.57 3.5-3.5 3.5z" fill="#000000" data-original="#000000" style="" class=""/><path xmlns="http://www.w3.org/2000/svg" d="m25 29.25h-1.5v-5.5c0-.689-.561-1.25-1.25-1.25h-8.5c-.689 0-1.25.561-1.25 1.25v5.5h-1.5v-5.5c0-1.517 1.233-2.75 2.75-2.75h8.5c1.517 0 2.75 1.233 2.75 2.75z" fill="#000000" data-original="#000000" style="" class=""/><path xmlns="http://www.w3.org/2000/svg" d="m6.75 10h22.5v1.5h-22.5z" fill="#000000" data-original="#000000" style="" class=""/><path xmlns="http://www.w3.org/2000/svg" d="m27.25 30h-18.5c-1.517 0-2.75-1.233-2.75-2.75v-16.5c0-.116.027-.231.079-.335l1.724-3.447c.298-.597.897-.968 1.565-.968h17.264c.668 0 1.268.371 1.565.968l1.724 3.446c.052.105.079.22.079.336v16.5c0 1.517-1.233 2.75-2.75 2.75zm-19.75-19.073v16.323c0 .689.561 1.25 1.25 1.25h18.5c.689 0 1.25-.561 1.25-1.25v-16.323l-1.645-3.289c-.042-.085-.127-.138-.223-.138h-17.264c-.096 0-.181.053-.224.137v.001z" fill="#000000" data-original="#000000" style="" class=""/></g></svg>
